<?xml version="1.0"?>
<svg xmlns="http://www.w3.org/2000/svg" viewBox="0 0 1600 900">
  <defs>
    <linearGradient id="electric" x1="0%" y1="0%" x2="100%" y2="100%">
      <stop offset="0%" stop-color="#00E5FF"></stop>
      <stop offset="50%" stop-color="#3B82F6"></stop>
      <stop offset="100%" stop-color="#6D28D9"></stop>
    </linearGradient>

    <linearGradient id="light" x1="0%" y1="0%" x2="100%" y2="100%">
      <stop offset="0%" stop-color="#F8FAFC"></stop>
      <stop offset="100%" stop-color="#CBD5E1"></stop>
    </linearGradient>
  </defs>

  <g transform="translate(180,140)">

    <path d="M220 0 L440 125 L440 375 L220 500 L0 375 L0 125 Z" fill="none" stroke="url(#electric)" stroke-width="28"></path>

    <path d="M90 110 H350 L305 165 H235 V390 L155 440 V165 H45 Z" fill="url(#electric)"></path>

    <path d="M350 165&#xA;             C300 165 270 195 270 230&#xA;             C270 265 300 285 350 285&#xA;             C400 285 430 315 430 355&#xA;             C430 410 385 450 315 450&#xA;             H110&#xA;             L155 395&#xA;             H305&#xA;             C340 395 355 380 355 360&#xA;             C355 340 340 325 305 325&#xA;             C230 325 195 285 195 235&#xA;             C195 160 255 110 345 110&#xA;             H435&#xA;             L390 165 Z" fill="url(#light)"></path>
  </g>

  <text x="800" y="420" font-family="Inter, Arial, Helvetica, sans-serif" font-size="170" font-weight="800" letter-spacing="-4">
      <tspan fill="#F8FAFC">Tech</tspan><tspan fill="url(#electric)">Store</tspan>
  </text>

  <text x="804" y="495" font-family="Inter, Arial, Helvetica, sans-serif" font-size="34" letter-spacing="10" fill="#94A3B8">
      NEXT GENERATION TECHNOLOGY COMMERCE
  </text>

  <rect x="620" y="555" width="420" height="10" rx="5" fill="url(#electric)"></rect>
</svg>